<?xml version="1.0" encoding="UTF-8" standalone="no"?>
<!-- Created with Inkscape (http://www.inkscape.org/) -->

<svg
   xmlns:dc="http://purl.org/dc/elements/1.1/"
   xmlns:cc="http://creativecommons.org/ns#"
   xmlns:rdf="http://www.w3.org/1999/02/22-rdf-syntax-ns#"
   xmlns:svg="http://www.w3.org/2000/svg"
   xmlns="http://www.w3.org/2000/svg"
   xmlns:sodipodi="http://sodipodi.sourceforge.net/DTD/sodipodi-0.dtd"
   xmlns:inkscape="http://www.inkscape.org/namespaces/inkscape"
   sodipodi:docname="vessel-block-overview.svg"
   inkscape:version="0.91+devel r13824 custom"
   version="1.1"
   id="svg2"
   height="176.00002"
   width="396">
  <sodipodi:namedview
     id="base"
     pagecolor="#ffffff"
     bordercolor="#666666"
     borderopacity="1.0"
     inkscape:pageopacity="0.0"
     inkscape:pageshadow="2"
     inkscape:zoom="3.959798"
     inkscape:cx="223.96026"
     inkscape:cy="97.717313"
     inkscape:document-units="px"
     inkscape:current-layer="layer1"
     showgrid="true"
     inkscape:window-width="1276"
     inkscape:window-height="761"
     inkscape:window-x="1280"
     inkscape:window-y="394"
     inkscape:window-maximized="0"
     units="cm"
     fit-margin-top="0"
     fit-margin-left="0"
     fit-margin-right="0"
     fit-margin-bottom="0">
    <inkscape:grid
       type="xygrid"
       id="grid3010"
       empspacing="5"
       visible="true"
       enabled="true"
       snapvisiblegridlinesonly="true"
       originx="100.5"
       originy="-114.5" />
  </sodipodi:namedview>
  <defs
     id="defs4">
    <marker
       inkscape:stockid="Arrow2Mstart"
       orient="auto"
       refY="0"
       refX="0"
       id="Arrow2Mstart"
       style="overflow:visible">
      <path
         id="path3925"
         style="fill-rule:evenodd;stroke-width:0.625;stroke-linejoin:round"
         d="M 8.7185878,4.0337352 -2.2072895,0.01601326 8.7185884,-4.0017078 c -1.7454984,2.3720609 -1.7354408,5.6174519 -6e-7,8.035443 z"
         transform="scale(0.6)"
         inkscape:connector-curvature="0" />
    </marker>
    <marker
       inkscape:stockid="Arrow1Mstart"
       orient="auto"
       refY="0"
       refX="0"
       id="Arrow1Mstart"
       style="overflow:visible">
      <path
         id="path4086"
         d="M 0,0 5,-5 -12.5,0 5,5 0,0 Z"
         style="fill-rule:evenodd;stroke:#000000;stroke-width:1.00000003pt"
         transform="matrix(0.4,0,0,0.4,4,0)"
         inkscape:connector-curvature="0" />
    </marker>
    <marker
       inkscape:stockid="Arrow1Mend"
       orient="auto"
       refY="0"
       refX="0"
       id="Arrow1Mend"
       style="overflow:visible">
      <path
         id="path4089"
         d="M 0,0 5,-5 -12.5,0 5,5 0,0 Z"
         style="fill-rule:evenodd;stroke:#000000;stroke-width:1.00000003pt"
         transform="matrix(-0.4,0,0,-0.4,-4,0)"
         inkscape:connector-curvature="0" />
    </marker>
    <marker
       inkscape:stockid="Arrow1Lend"
       orient="auto"
       refY="0"
       refX="0"
       id="Arrow1Lend"
       style="overflow:visible">
      <path
         id="path4154"
         d="M 0,0 5,-5 -12.5,0 5,5 0,0 Z"
         style="fill-rule:evenodd;stroke:#000000;stroke-width:1.00000003pt"
         transform="matrix(-0.8,0,0,-0.8,-10,0)"
         inkscape:connector-curvature="0" />
    </marker>
    <marker
       inkscape:stockid="Arrow2Mend"
       orient="auto"
       refY="0"
       refX="0"
       id="Arrow2Mend"
       style="overflow:visible">
      <path
         id="path3900"
         style="fill-rule:evenodd;stroke-width:0.625;stroke-linejoin:round"
         d="M 8.7185878,4.0337352 -2.2072895,0.01601326 8.7185884,-4.0017078 c -1.7454984,2.3720609 -1.7354408,5.6174519 -6e-7,8.035443 z"
         transform="scale(-0.6)"
         inkscape:connector-curvature="0" />
    </marker>
    <marker
       inkscape:stockid="Arrow1Send"
       orient="auto"
       refY="0"
       refX="0"
       id="Arrow1Send"
       style="overflow:visible">
      <path
         id="path3888"
         d="M 0,0 5,-5 -12.5,0 5,5 0,0 Z"
         style="fill-rule:evenodd;stroke:#000000;stroke-width:1.00000003pt"
         transform="matrix(-0.2,0,0,-0.2,-1.2,0)"
         inkscape:connector-curvature="0" />
    </marker>
    <marker
       inkscape:stockid="Arrow2Lend"
       orient="auto"
       refY="0"
       refX="0"
       id="Arrow2Lend"
       style="overflow:visible">
      <path
         id="path3796"
         style="fill-rule:evenodd;stroke-width:0.625;stroke-linejoin:round"
         d="M 8.7185878,4.0337352 -2.2072895,0.01601326 8.7185884,-4.0017078 c -1.7454984,2.3720609 -1.7354408,5.6174519 -6e-7,8.035443 z"
         transform="matrix(-1.1,0,0,-1.1,-1.1,0)"
         inkscape:connector-curvature="0" />
    </marker>
  </defs>
  <metadata
     id="metadata7">
    <rdf:RDF>
      <cc:Work
         rdf:about="">
        <dc:format>image/svg+xml</dc:format>
        <dc:type
           rdf:resource="http://purl.org/dc/dcmitype/StillImage" />
        <dc:title></dc:title>
      </cc:Work>
    </rdf:RDF>
  </metadata>
  <g
     inkscape:label="Layer 1"
     inkscape:groupmode="layer"
     id="layer1"
     transform="translate(100.5,-761.86084)">
    <rect
       y="797.36084"
       x="-100"
       height="95.000015"
       width="80"
       id="rect3880"
       style="fill:none;stroke:#000000;stroke-linecap:round;stroke-linejoin:round;stroke-opacity:1" />
    <rect
       style="fill:#ffc537;fill-opacity:1;fill-rule:nonzero;stroke:#000000;stroke-linecap:round;stroke-linejoin:round;stroke-opacity:1"
       id="rect3785"
       width="100"
       height="165.00002"
       x="-5"
       y="762.36084" />
    <rect
       style="fill:none;stroke:#000000;stroke-width:1;stroke-miterlimit:4;stroke-dasharray:4, 4;stroke-dashoffset:0;stroke-opacity:1"
       id="rect4895"
       width="185"
       height="130"
       x="110"
       y="99.330681"
       transform="translate(0,698.03017)" />
    <rect
       style="fill:#ababab;fill-opacity:1;fill-rule:nonzero;stroke:#000000;stroke-width:1;stroke-linecap:round;stroke-linejoin:round;stroke-miterlimit:4;stroke-dasharray:none;stroke-dashoffset:0;stroke-opacity:1"
       id="rect4883"
       width="110"
       height="79.999954"
       x="170"
       y="842.3609" />
    <rect
       style="fill:#000000;fill-opacity:0.31372549;stroke:#000000;stroke-width:1;stroke-linecap:round;stroke-linejoin:round;stroke-miterlimit:4;stroke-dasharray:none;stroke-dashoffset:0;stroke-opacity:1"
       id="rect3861"
       width="80"
       height="75"
       x="5"
       y="802.3609" />
    <rect
       y="827.36084"
       x="110"
       height="30.000019"
       width="40"
       id="rect3859"
       style="fill:#5869ff;fill-opacity:1;fill-rule:nonzero;stroke:#000000;stroke-linecap:round;stroke-linejoin:round;stroke-opacity:1" />
    <rect
       style="fill:#5869ff;fill-opacity:1;fill-rule:nonzero;stroke:#000000;stroke-linecap:round;stroke-linejoin:round;stroke-opacity:1"
       id="rect3853"
       width="70"
       height="15.000019"
       x="10"
       y="847.36084" />
    <rect
       y="827.36084"
       x="10"
       height="15.000019"
       width="70"
       id="rect3851"
       style="fill:#5869ff;fill-opacity:1;fill-rule:nonzero;stroke:#000000;stroke-linecap:round;stroke-linejoin:round;stroke-opacity:1" />
    <rect
       style="fill:#5869ff;fill-opacity:1;fill-rule:nonzero;stroke:#000000;stroke-linecap:round;stroke-linejoin:round;stroke-opacity:1"
       id="rect3849"
       width="70"
       height="15.000019"
       x="10"
       y="782.36084" />
    <rect
       y="807.36084"
       x="10"
       height="15.000019"
       width="70"
       id="rect3845"
       style="fill:#5869ff;fill-opacity:1;fill-rule:nonzero;stroke:#000000;stroke-linecap:round;stroke-linejoin:round;stroke-opacity:1" />
    <rect
       style="fill:#ff3741;fill-opacity:1;fill-rule:nonzero;stroke:#000000;stroke-linecap:round;stroke-linejoin:round;stroke-opacity:1"
       id="rect3781"
       width="90"
       height="30.000019"
       x="175"
       y="847.36084" />
    <rect
       y="887.36084"
       x="175"
       height="30.000019"
       width="90"
       id="rect3783"
       style="fill:#ff3741;fill-opacity:1;fill-rule:nonzero;stroke:#000000;stroke-linecap:round;stroke-linejoin:round;stroke-opacity:1" />
    <rect
       y="807.36084"
       x="175"
       height="30.000019"
       width="90"
       id="rect3005"
       style="fill:#ff3741;fill-opacity:1;fill-rule:nonzero;stroke:#000000;stroke-linecap:round;stroke-linejoin:round;stroke-opacity:1" />
    <rect
       style="fill:#ff3741;fill-opacity:1;fill-rule:nonzero;stroke:#000000;stroke-linecap:round;stroke-linejoin:round;stroke-opacity:1"
       id="rect3018"
       width="90"
       height="30"
       x="175"
       y="762.36084" />
    <text
       xml:space="preserve"
       style="font-style:normal;font-weight:normal;font-size:11px;line-height:125%;font-family:'Times New Roman';-inkscape-font-specification:'Times New Roman';text-align:center;letter-spacing:0px;word-spacing:0px;text-anchor:middle;fill:#000000;fill-opacity:1;stroke:none"
       x="220.18407"
       y="774.72113"
       id="text3012"
       sodipodi:linespacing="125%"><tspan
         sodipodi:role="line"
         x="220.18407"
         y="774.72113"
         id="tspan4899">\small{Geo data}</tspan><tspan
         sodipodi:role="line"
         x="220.18407"
         y="788.47113"
         id="tspan3068" /></text>
    <text
       sodipodi:linespacing="125%"
       id="text3794"
       y="817.36084"
       x="220"
       style="font-style:normal;font-weight:normal;font-size:11px;line-height:125%;font-family:'Times New Roman';-inkscape-font-specification:'Times New Roman';text-align:center;letter-spacing:0px;word-spacing:0px;text-anchor:middle;fill:#000000;fill-opacity:1;stroke:none"
       xml:space="preserve"><tspan
         y="817.36084"
         x="220"
         sodipodi:role="line"
         id="tspan3802">\small{Generate}</tspan></text>
    <text
       xml:space="preserve"
       style="font-style:normal;font-weight:normal;font-size:11px;line-height:125%;font-family:'Times New Roman';-inkscape-font-specification:'Times New Roman';text-align:center;letter-spacing:0px;word-spacing:0px;text-anchor:middle;fill:#000000;fill-opacity:1;stroke:none"
       x="220"
       y="857.36084"
       id="text3804"
       sodipodi:linespacing="125%"><tspan
         sodipodi:role="line"
         x="220"
         y="857.36084"
         id="tspan3815">\small{Calculate heading}</tspan></text>
    <text
       sodipodi:linespacing="125%"
       id="text3810"
       y="897.36084"
       x="220"
       style="font-style:normal;font-weight:normal;font-size:11px;line-height:125%;font-family:'Times New Roman';-inkscape-font-specification:'Times New Roman';text-align:center;letter-spacing:0px;word-spacing:0px;text-anchor:middle;fill:#000000;fill-opacity:1;stroke:none"
       xml:space="preserve"><tspan
         y="897.36084"
         x="220"
         sodipodi:role="line"
         id="tspan3819">\small{State Space}</tspan></text>
    <text
       xml:space="preserve"
       style="font-style:normal;font-weight:normal;font-size:11px;line-height:125%;font-family:'Times New Roman';-inkscape-font-specification:'Times New Roman';text-align:center;letter-spacing:0px;word-spacing:0px;text-anchor:middle;fill:#000000;fill-opacity:1;stroke:none"
       x="45"
       y="902.36084"
       id="text3820"
       sodipodi:linespacing="125%"><tspan
         sodipodi:role="line"
         x="45"
         y="902.36084"
         id="tspan3843">\small{Low Level}</tspan></text>
    <flowRoot
       xml:space="preserve"
       id="flowRoot3830"
       style="font-style:normal;font-weight:normal;font-size:11px;line-height:125%;font-family:'Times New Roman';-inkscape-font-specification:'Times New Roman';letter-spacing:0px;word-spacing:0px;fill:#000000;fill-opacity:1;stroke:none"><flowRegion
         id="flowRegion3832"><rect
           id="rect3834"
           width="113.57143"
           height="209.28572"
           x="137.5"
           y="72.902115" /></flowRegion><flowPara
         id="flowPara3836" /></flowRoot>    <text
       sodipodi:linespacing="125%"
       id="text3787"
       y="792.36084"
       x="45"
       style="font-style:normal;font-weight:normal;font-size:11px;line-height:125%;font-family:'Times New Roman';-inkscape-font-specification:'Times New Roman';text-align:center;letter-spacing:0px;word-spacing:0px;text-anchor:middle;fill:#000000;fill-opacity:1;stroke:none"
       xml:space="preserve"><tspan
         y="792.36084"
         x="45"
         sodipodi:role="line"
         id="tspan3791">\small{GPS}</tspan></text>
    <text
       xml:space="preserve"
       style="font-style:normal;font-weight:normal;font-size:11px;line-height:125%;font-family:'Times New Roman';-inkscape-font-specification:'Times New Roman';text-align:center;letter-spacing:0px;word-spacing:0px;text-anchor:middle;fill:#000000;fill-opacity:1;stroke:none"
       x="45"
       y="817.36084"
       id="text3795"
       sodipodi:linespacing="125%"><tspan
         id="tspan3797"
         sodipodi:role="line"
         x="45"
         y="817.36084">\small{Accelerometer}</tspan></text>
    <text
       sodipodi:linespacing="125%"
       id="text3799"
       y="837.36084"
       x="45"
       style="font-style:normal;font-weight:normal;font-size:11px;line-height:125%;font-family:'Times New Roman';-inkscape-font-specification:'Times New Roman';text-align:center;letter-spacing:0px;word-spacing:0px;text-anchor:middle;fill:#000000;fill-opacity:1;stroke:none"
       xml:space="preserve"><tspan
         y="837.36084"
         x="45"
         sodipodi:role="line"
         id="tspan3801">\small{Magnetometer}</tspan></text>
    <text
       xml:space="preserve"
       style="font-style:normal;font-weight:normal;font-size:11px;line-height:125%;font-family:'Times New Roman';-inkscape-font-specification:'Times New Roman';text-align:center;letter-spacing:0px;word-spacing:0px;text-anchor:middle;fill:#000000;fill-opacity:1;stroke:none"
       x="45"
       y="857.36084"
       id="text3803"
       sodipodi:linespacing="125%"><tspan
         id="tspan3805"
         sodipodi:role="line"
         x="45"
         y="857.36084">\small{Gyrometer}</tspan></text>
    <text
       sodipodi:linespacing="125%"
       id="text3807"
       y="837.36084"
       x="130"
       style="font-style:normal;font-weight:normal;font-size:11px;line-height:125%;font-family:'Times New Roman';-inkscape-font-specification:'Times New Roman';text-align:center;letter-spacing:0px;word-spacing:0px;text-anchor:middle;fill:#000000;fill-opacity:1;stroke:none"
       xml:space="preserve"><tspan
         y="837.36084"
         x="130"
         sodipodi:role="line"
         id="tspan3811">\small{Kalman}</tspan></text>
    <text
       xml:space="preserve"
       style="font-style:normal;font-weight:normal;font-size:11px;line-height:125%;font-family:'Times New Roman';-inkscape-font-specification:'Times New Roman';text-align:center;letter-spacing:0px;word-spacing:0px;text-anchor:middle;fill:#000000;fill-opacity:1;stroke:none"
       x="45"
       y="872.36084"
       id="text3821"
       sodipodi:linespacing="125%"><tspan
         sodipodi:role="line"
         x="45"
         y="872.36084"
         id="tspan3829">\small{IMU}</tspan></text>
    <text
       sodipodi:linespacing="125%"
       id="text3833"
       y="-270"
       x="847.36084"
       style="font-style:normal;font-weight:normal;font-size:11px;line-height:125%;font-family:'Times New Roman';-inkscape-font-specification:'Times New Roman';text-align:start;letter-spacing:0px;word-spacing:0px;text-anchor:start;fill:#000000;fill-opacity:1;stroke:none"
       xml:space="preserve"
       transform="rotate(90)"><tspan
         id="tspan3835"
         y="-270"
         x="847.36084"
         sodipodi:role="line">\small{Control}</tspan></text>
    <text
       xml:space="preserve"
       style="font-style:normal;font-weight:normal;font-size:11px;line-height:125%;font-family:'Times New Roman';-inkscape-font-specification:'Times New Roman';text-align:start;letter-spacing:0px;word-spacing:0px;text-anchor:start;fill:#000000;fill-opacity:1;stroke:none"
       x="802.36084"
       y="-285"
       id="text3837"
       sodipodi:linespacing="125%"
       transform="rotate(90)"><tspan
         sodipodi:role="line"
         x="802.36084"
         y="-285"
         id="tspan3839">\small{High Level Interface}</tspan></text>
    <text
       xml:space="preserve"
       style="font-style:normal;font-weight:normal;font-size:11px;line-height:125%;font-family:'Times New Roman';-inkscape-font-specification:'Times New Roman';text-align:start;letter-spacing:0px;word-spacing:0px;text-anchor:start;fill:#000000;fill-opacity:1;stroke:none"
       x="5"
       y="777.36084"
       id="text3855"
       sodipodi:linespacing="125%"><tspan
         sodipodi:role="line"
         x="5"
         y="777.36084"
         id="tspan3857">Sensors</tspan></text>
    <rect
       style="fill:none;stroke:#000000;stroke-width:1;stroke-linecap:round;stroke-linejoin:round;stroke-miterlimit:4;stroke-dasharray:4, 4;stroke-dashoffset:0;stroke-opacity:1"
       id="rect3863"
       width="90"
       height="115"
       x="0"
       y="767.3609" />
    <path
       style="fill:#ababab;fill-opacity:1;stroke:#000000;stroke-width:1px;stroke-linecap:round;stroke-linejoin:round;stroke-opacity:1"
       d="m 90,847.36088 10,0 0,10 10,-15 -10,-15 0,10 -10,0 z"
       id="path3865"
       inkscape:connector-curvature="0"
       sodipodi:nodetypes="cccccccc" />
    <path
       style="fill:none;stroke:#000000;stroke-width:1px;stroke-linecap:round;stroke-linejoin:round;stroke-opacity:1;marker-end:url(#Arrow2Mend)"
       d="m 150,144.33069 10,0 0,20 15,0"
       id="path3867"
       inkscape:connector-curvature="0"
       transform="translate(0,698.03017)"
       sodipodi:nodetypes="cccc" />
    <path
       style="fill:none;stroke:#000000;stroke-width:1px;stroke-linecap:round;stroke-linejoin:round;stroke-opacity:1;marker-end:url(#Arrow2Mend)"
       d="m 160,144.33069 0,-20 15,0"
       id="path4503"
       inkscape:connector-curvature="0"
       transform="translate(0,698.03017)"
       sodipodi:nodetypes="ccc" />
    <path
       style="fill:none;stroke:#000000;stroke-width:1px;stroke-linecap:round;stroke-linejoin:round;stroke-opacity:1;marker-end:url(#Arrow2Mend)"
       d="m 220,877.36088 0,10"
       id="path4695"
       inkscape:connector-curvature="0" />
    <path
       inkscape:connector-curvature="0"
       id="path4885"
       d="m 220,917.36088 0,19.99997 -175,0 0,-10"
       style="fill:none;stroke:#000000;stroke-width:1px;stroke-linecap:round;stroke-linejoin:round;stroke-opacity:1;marker-end:url(#Arrow2Mend)"
       sodipodi:nodetypes="cccc" />
    <path
       inkscape:connector-curvature="0"
       id="path4887"
       d="m 220,837.36088 0,10"
       style="fill:none;stroke:#000000;stroke-width:1px;stroke-linecap:round;stroke-linejoin:round;stroke-opacity:1;marker-end:url(#Arrow2Mend)" />
    <path
       sodipodi:nodetypes="cc"
       style="fill:none;stroke:#000000;stroke-width:1px;stroke-linecap:round;stroke-linejoin:round;stroke-opacity:1;marker-end:url(#Arrow2Mend)"
       d="m 220,792.36088 0,15"
       id="path4891"
       inkscape:connector-curvature="0" />
    <rect
       y="812.36084"
       x="-95"
       height="15.000019"
       width="70"
       id="rect3856"
       style="fill:#5869ff;fill-opacity:1;fill-rule:nonzero;stroke:#000000;stroke-linecap:round;stroke-linejoin:round;stroke-opacity:1" />
    <text
       xml:space="preserve"
       style="font-style:normal;font-weight:normal;font-size:11px;line-height:125%;font-family:'Times New Roman';-inkscape-font-specification:'Times New Roman';text-align:center;letter-spacing:0px;word-spacing:0px;text-anchor:middle;fill:#000000;fill-opacity:1;stroke:none"
       x="-60"
       y="822.36084"
       id="text3858"
       sodipodi:linespacing="125%"><tspan
         id="tspan3860"
         sodipodi:role="line"
         x="-60"
         y="822.36084">\small{Stdb. Prop.}</tspan></text>
    <rect
       style="fill:#5869ff;fill-opacity:1;fill-rule:nonzero;stroke:#000000;stroke-linecap:round;stroke-linejoin:round;stroke-opacity:1"
       id="rect3862"
       width="70"
       height="15.000019"
       x="-95"
       y="832.36084" />
    <text
       sodipodi:linespacing="125%"
       id="text3864"
       y="842.36084"
       x="-60"
       style="font-style:normal;font-weight:normal;font-size:11px;line-height:125%;font-family:'Times New Roman';-inkscape-font-specification:'Times New Roman';text-align:center;letter-spacing:0px;word-spacing:0px;text-anchor:middle;fill:#000000;fill-opacity:1;stroke:none"
       xml:space="preserve"><tspan
         y="842.36084"
         x="-60"
         sodipodi:role="line"
         id="tspan3866">\small{Port Propeller}</tspan></text>
    <rect
       style="fill:#5869ff;fill-opacity:1;fill-rule:nonzero;stroke:#000000;stroke-linecap:round;stroke-linejoin:round;stroke-opacity:1"
       id="rect3868"
       width="70"
       height="15.000019"
       x="-95"
       y="852.36084" />
    <text
       sodipodi:linespacing="125%"
       id="text3870"
       y="791.763"
       x="-65.349922"
       style="font-style:normal;font-weight:normal;font-size:10.09947586px;line-height:125%;font-family:'Times New Roman';-inkscape-font-specification:'Times New Roman';text-align:center;letter-spacing:0px;word-spacing:0px;text-anchor:middle;fill:#000000;fill-opacity:1;stroke:none"
       xml:space="preserve"
       transform="scale(0.91813421,1.0891654)"><tspan
         y="791.763"
         x="-65.349922"
         sodipodi:role="line"
         id="tspan3872">\small{Forward Thru.}</tspan></text>
    <rect
       y="872.36084"
       x="-95"
       height="15.000019"
       width="70"
       id="rect3874"
       style="fill:#5869ff;fill-opacity:1;fill-rule:nonzero;stroke:#000000;stroke-linecap:round;stroke-linejoin:round;stroke-opacity:1" />
    <text
       xml:space="preserve"
       style="font-style:normal;font-weight:normal;font-size:11px;line-height:125%;font-family:'Times New Roman';-inkscape-font-specification:'Times New Roman';text-align:center;letter-spacing:0px;word-spacing:0px;text-anchor:middle;fill:#000000;fill-opacity:1;stroke:none"
       x="-60"
       y="882.36084"
       id="text3876"
       sodipodi:linespacing="125%"><tspan
         id="tspan3878"
         sodipodi:role="line"
         x="-60"
         y="882.36084">\small{Aft Thruster}</tspan></text>
    <text
       sodipodi:linespacing="125%"
       id="text3882"
       y="807.36084"
       x="-95"
       style="font-style:normal;font-weight:normal;font-size:11px;line-height:125%;font-family:'Times New Roman';-inkscape-font-specification:'Times New Roman';text-align:start;letter-spacing:0px;word-spacing:0px;text-anchor:start;fill:#000000;fill-opacity:1;stroke:none"
       xml:space="preserve"><tspan
         id="tspan3884"
         y="807.36084"
         x="-95"
         sodipodi:role="line">\small{Actuators}</tspan></text>
    <path
       style="fill:none;stroke:#000000;stroke-width:1px;stroke-linecap:butt;stroke-linejoin:miter;stroke-opacity:1;marker-end:url(#Arrow1Mend)"
       d="m -5,842.36085 -15,0"
       id="path3889"
       inkscape:connector-curvature="0"
       sodipodi:nodetypes="cc" />
    <rect
       style="fill:none;stroke:#000000;stroke-linecap:round;stroke-linejoin:round;stroke-opacity:1"
       id="rect3084"
       width="80"
       height="30.000011"
       x="-100"
       y="897.36084" />
    <text
       xml:space="preserve"
       style="font-style:normal;font-weight:normal;font-size:11px;line-height:125%;font-family:'Times New Roman';-inkscape-font-specification:'Times New Roman';text-align:start;letter-spacing:0px;word-spacing:0px;text-anchor:start;fill:#000000;fill-opacity:1;stroke:none"
       x="-95"
       y="907.36084"
       id="text3086"
       sodipodi:linespacing="125%"><tspan
         sodipodi:role="line"
         x="-95"
         y="907.36084"
         id="tspan3090">\small{Miscellaneous}</tspan></text>
    <path
       sodipodi:nodetypes="cc"
       style="fill:none;stroke:#000000;stroke-width:1px;stroke-linecap:round;stroke-linejoin:round;stroke-opacity:1;marker-start:url(#Arrow2Mstart);marker-end:url(#Arrow2Mend)"
       d="m -5,912.36085 -15,0"
       id="path3094"
       inkscape:connector-curvature="0" />
    <text
       sodipodi:linespacing="125%"
       id="text4672"
       y="922.34302"
       x="-95.089287"
       style="font-style:normal;font-weight:normal;font-size:11px;line-height:125%;font-family:'Times New Roman';-inkscape-font-specification:'Times New Roman';text-align:start;letter-spacing:0px;word-spacing:0px;text-anchor:start;fill:#000000;fill-opacity:1;stroke:none"
       xml:space="preserve"><tspan
         id="tspan4674"
         y="922.34302"
         x="-95.089287"
         sodipodi:role="line">\small{devices}</tspan></text>
    <text
       sodipodi:linespacing="125%"
       id="text4678"
       y="918.36084"
       x="45"
       style="font-style:normal;font-weight:normal;font-size:11px;line-height:125%;font-family:'Times New Roman';-inkscape-font-specification:'Times New Roman';text-align:center;letter-spacing:0px;word-spacing:0px;text-anchor:middle;fill:#000000;fill-opacity:1;stroke:none"
       xml:space="preserve"><tspan
         id="tspan4680"
         y="918.36084"
         x="45"
         sodipodi:role="line">\small{Interface}</tspan></text>
    <text
       xml:space="preserve"
       style="font-style:normal;font-weight:normal;font-size:11px;line-height:125%;font-family:'Times New Roman';-inkscape-font-specification:'Times New Roman';text-align:center;letter-spacing:0px;word-spacing:0px;text-anchor:middle;fill:#000000;fill-opacity:1;stroke:none"
       x="220"
       y="909.36084"
       id="text4684"
       sodipodi:linespacing="125%"><tspan
         id="tspan4686"
         sodipodi:role="line"
         x="220"
         y="909.36084">\small{Model}</tspan></text>
    <text
       sodipodi:linespacing="125%"
       id="text4690"
       y="869.36084"
       x="220"
       style="font-style:normal;font-weight:normal;font-size:11px;line-height:125%;font-family:'Times New Roman';-inkscape-font-specification:'Times New Roman';text-align:center;letter-spacing:0px;word-spacing:0px;text-anchor:middle;fill:#000000;fill-opacity:1;stroke:none"
       xml:space="preserve"><tspan
         id="tspan4692"
         y="869.36084"
         x="220"
         sodipodi:role="line">\small{and speed}</tspan></text>
    <text
       xml:space="preserve"
       style="font-style:normal;font-weight:normal;font-size:11px;line-height:125%;font-family:'Times New Roman';-inkscape-font-specification:'Times New Roman';text-align:center;letter-spacing:0px;word-spacing:0px;text-anchor:middle;fill:#000000;fill-opacity:1;stroke:none"
       x="220"
       y="829.36084"
       id="text4696"
       sodipodi:linespacing="125%"><tspan
         id="tspan4698"
         sodipodi:role="line"
         x="220"
         y="829.36084">\small{Waypoints}</tspan></text>
    <text
       sodipodi:linespacing="125%"
       id="text4700"
       y="784.72113"
       x="220.18407"
       style="font-style:normal;font-weight:normal;font-size:11px;line-height:125%;font-family:'Times New Roman';-inkscape-font-specification:'Times New Roman';text-align:center;letter-spacing:0px;word-spacing:0px;text-anchor:middle;fill:#000000;fill-opacity:1;stroke:none"
       xml:space="preserve"><tspan
         id="tspan4702"
         y="784.72113"
         x="220.18407"
         sodipodi:role="line">\small{as user input}</tspan><tspan
         id="tspan4704"
         y="798.47113"
         x="220.18407"
         sodipodi:role="line" /></text>
    <text
       xml:space="preserve"
       style="font-style:normal;font-weight:normal;font-size:11px;line-height:125%;font-family:'Times New Roman';-inkscape-font-specification:'Times New Roman';text-align:center;letter-spacing:0px;word-spacing:0px;text-anchor:middle;fill:#000000;fill-opacity:1;stroke:none"
       x="130"
       y="851.36084"
       id="text4708"
       sodipodi:linespacing="125%"><tspan
         id="tspan4710"
         sodipodi:role="line"
         x="130"
         y="851.36084">\small{filter}</tspan></text>
  </g>
  <g
     style="font-style:normal;font-variant:normal;font-weight:normal;font-stretch:normal;letter-spacing:normal;word-spacing:normal;text-anchor:start;fill:none;stroke:#000000;stroke-linecap:butt;stroke-linejoin:miter;stroke-miterlimit:10.43299961;stroke-dasharray:none;stroke-dashoffset:0;stroke-opacity:1"
     word-spacing="normal"
     letter-spacing="normal"
     font-size-adjust="none"
     font-stretch="normal"
     font-weight="normal"
     font-variant="normal"
     font-style="normal"
     stroke-miterlimit="10.433"
     xml:space="preserve"
     transform="matrix(0.17563204,0,0,-0.17563204,263.93056,183.68948)"
     id="content"><path
       style="fill:#000000;stroke-width:0"
       inkscape:connector-curvature="0"
       id="path7004"
       d="m 478.19,431.11 0,0.31 -0.01,0.34 -0.02,0.36 -0.02,0.37 -0.03,0.39 -0.04,0.39 -0.04,0.41 -0.06,0.41 -0.07,0.42 -0.07,0.43 -0.09,0.42 -0.1,0.43 -0.12,0.42 -0.12,0.42 -0.14,0.41 -0.16,0.41 -0.17,0.4 -0.18,0.38 -0.2,0.37 -0.22,0.36 -0.23,0.34 -0.25,0.32 -0.28,0.3 -0.29,0.27 -0.31,0.25 -0.16,0.12 -0.17,0.1 -0.17,0.1 -0.18,0.1 -0.18,0.08 -0.19,0.08 -0.19,0.07 -0.2,0.06 -0.21,0.05 -0.21,0.05 -0.22,0.03 -0.22,0.02 -0.23,0.02 -0.23,0 -0.05,-1.09 c 2.44,0 2.73,-3.19 2.73,-6.03 0,-2.44 -0.39,-4.99 -1.59,-9.92 l -10.41,0 c 0.85,3.2 1.85,7.18 3.83,10.72 1.36,2.43 3.19,5.23 5.44,5.23 l 0.05,1.09 c -6.92,0 -14.6,-14.04 -14.6,-25.45 0,-4.69 1.44,-10.22 5.99,-10.22 l 0,1.1 c -1.66,0 -2.71,1.45 -2.71,6.07 0,2.1 0.3,4.99 1.6,9.86 l 10.37,0 c -0.54,-2.28 -1.59,-6.51 -3.5,-10.11 -1.73,-3.39 -3.62,-5.82 -5.76,-5.82 l 0,-1.1 c 7.01,0 14.59,14.3 14.59,25.46 z" /><path
       style="fill:#000000;stroke-width:0"
       inkscape:connector-curvature="0"
       id="path7006"
       d="m 487.11,405.79 0,0.02 0,0.01 0.01,0.02 0,0.03 0.01,0.03 0.01,0.03 0.01,0.03 0,0.04 0.01,0.04 0.02,0.05 0.01,0.04 0.01,0.06 0.01,0.05 0.02,0.05 0.03,0.12 0.03,0.13 0.03,0.13 0.04,0.15 0.03,0.14 0.04,0.15 0.04,0.15 0.08,0.32 0.08,0.31 0.04,0.15 0.04,0.15 0.04,0.14 0.03,0.14 0.04,0.14 0.03,0.12 0.03,0.12 0.02,0.05 0.01,0.05 0.01,0.05 0.02,0.05 0.01,0.04 0.01,0.04 0.01,0.04 0.01,0.03 0.01,0.03 0.01,0.03 0,0.02 0.01,0.02 0,0.01 0.01,0.01 c 0.07,0.29 1.07,2.02 2.2,2.86 0.37,0.27 1.31,0.97 2.81,0.97 0.35,0 1.22,-0.03 1.92,-0.48 -1.12,-0.31 -1.53,-1.3 -1.53,-1.92 0,-0.77 0.6,-1.29 1.39,-1.29 0.8,0 1.96,0.66 1.96,2.13 0,1.81 -1.93,2.53 -3.71,2.53 -1.81,0 -3.37,-0.72 -4.9,-2.47 -0.63,2.13 -2.75,2.47 -3.6,2.47 -1.28,0 -2.15,-0.8 -2.72,-1.76 -0.79,-1.36 -1.28,-3.4 -1.28,-3.57 0,-0.45 0.49,-0.45 0.6,-0.45 0.48,0 0.51,0.11 0.76,1.05 0.52,2.12 1.19,3.76 2.55,3.76 0.91,0 1.14,-0.76 1.14,-1.7 0,-0.67 -0.31,-1.95 -0.56,-2.89 -0.24,-0.95 -0.58,-2.38 -0.77,-3.14 l -1.11,-4.47 c -0.14,-0.44 -0.34,-1.31 -0.34,-1.42 0,-0.77 0.62,-1.11 1.19,-1.11 0.51,0 1.21,0.31 1.48,1 0.08,0.22 0.45,1.75 0.67,2.62 z" /><path
       style="fill:#000000;stroke-width:0"
       inkscape:connector-curvature="0"
       id="path7008"
       d="m 511.11,406.25 0,0.3 -0.02,0.3 -0.01,0.29 -0.03,0.28 -0.03,0.27 -0.04,0.26 -0.04,0.26 -0.05,0.24 -0.06,0.24 -0.07,0.23 -0.07,0.22 -0.07,0.21 -0.09,0.2 -0.09,0.19 -0.09,0.19 -0.1,0.17 -0.11,0.16 -0.11,0.16 -0.12,0.14 -0.12,0.13 -0.13,0.13 -0.13,0.11 -0.14,0.1 -0.15,0.1 -0.14,0.08 -0.16,0.07 -0.16,0.06 -0.16,0.05 -0.17,0.04 -0.17,0.03 -0.18,0.01 -0.18,0.01 c -1.64,0 -2.64,-1.25 -2.64,-2.64 0,-1.34 1,-2.64 2.64,-2.64 0.6,0 1.25,0.2 1.75,0.64 0.14,0.11 0.21,0.16 0.25,0.16 0.05,0 0.1,-0.05 0.1,-0.75 0,-3.69 -1.74,-6.68 -3.4,-8.32 -0.54,-0.54 -0.54,-0.65 -0.54,-0.79 0,-0.36 0.25,-0.55 0.5,-0.55 0.54,0 4.53,3.83 4.53,9.66 z" /><path
       style="fill:#000000;stroke-width:0"
       inkscape:connector-curvature="0"
       id="path7010"
       d="m 554.36,434.54 0.23,0.36 0.22,0.33 0.23,0.31 0.22,0.29 0.22,0.28 0.22,0.25 0.22,0.24 0.21,0.22 0.22,0.2 0.21,0.19 0.21,0.17 0.2,0.16 0.21,0.14 0.2,0.13 0.2,0.12 0.2,0.11 0.2,0.09 0.2,0.09 0.19,0.07 0.19,0.07 0.2,0.06 0.18,0.05 0.19,0.04 0.19,0.03 0.18,0.03 0.19,0.03 0.36,0.04 0.35,0.02 0.35,0.02 c 0.59,0.05 0.64,0.89 0.64,0.96 0,0.39 -0.25,0.59 -0.64,0.59 -1.3,0 -2.75,-0.16 -4.09,-0.16 -1.64,0 -3.35,0.16 -4.94,0.16 -0.3,0 -0.94,0 -0.94,-0.95 0,-0.55 0.45,-0.6 0.8,-0.6 1.34,-0.09 2.3,-0.59 2.3,-1.64 0,-0.75 -0.76,-1.84 -0.76,-1.89 l -15.29,-24.31 -3.39,26.34 c 0,0.85 1.14,1.5 3.44,1.5 0.7,0 1.24,0 1.24,1 0,0.44 -0.4,0.55 -0.7,0.55 -1.98,0 -4.14,-0.16 -6.17,-0.16 -0.91,0 -1.84,0.05 -2.75,0.05 -0.89,0 -1.84,0.11 -2.69,0.11 -0.34,0 -0.93,0 -0.93,-0.95 0,-0.6 0.43,-0.6 1.23,-0.6 2.8,0 2.84,-0.45 3,-1.68 l 3.92,-30.75 c 0.16,-1 0.36,-1.14 1,-1.14 0.8,0 1,0.25 1.41,0.89 z" /><path
       style="fill:#000000;stroke-width:0"
       inkscape:connector-curvature="0"
       id="path7012"
       d="m 560.31,405.79 0,0.02 0,0.01 0.01,0.02 0,0.03 0.01,0.03 0.01,0.03 0.01,0.03 0,0.04 0.01,0.04 0.01,0.05 0.02,0.04 0.01,0.06 0.01,0.05 0.02,0.05 0.02,0.12 0.04,0.13 0.03,0.13 0.04,0.15 0.03,0.14 0.04,0.15 0.04,0.15 0.08,0.32 0.08,0.31 0.04,0.15 0.04,0.15 0.04,0.14 0.03,0.14 0.04,0.14 0.03,0.12 0.03,0.12 0.02,0.05 0.01,0.05 0.01,0.05 0.02,0.05 0.01,0.04 0.01,0.04 0.01,0.04 0.01,0.03 0.01,0.03 0,0.03 0.01,0.02 0.01,0.02 0,0.01 0.01,0.01 c 0.07,0.29 1.07,2.02 2.2,2.86 0.37,0.27 1.31,0.97 2.81,0.97 0.34,0 1.22,-0.03 1.92,-0.48 -1.12,-0.31 -1.53,-1.3 -1.53,-1.92 0,-0.77 0.6,-1.29 1.39,-1.29 0.8,0 1.96,0.66 1.96,2.13 0,1.81 -1.93,2.53 -3.71,2.53 -1.81,0 -3.37,-0.72 -4.91,-2.47 -0.62,2.13 -2.75,2.47 -3.59,2.47 -1.28,0 -2.16,-0.8 -2.72,-1.76 -0.79,-1.36 -1.28,-3.4 -1.28,-3.57 0,-0.45 0.49,-0.45 0.59,-0.45 0.49,0 0.52,0.11 0.77,1.05 0.52,2.12 1.19,3.76 2.55,3.76 0.9,0 1.14,-0.76 1.14,-1.7 0,-0.67 -0.31,-1.95 -0.56,-2.89 -0.24,-0.95 -0.58,-2.38 -0.77,-3.14 l -1.11,-4.47 c -0.14,-0.44 -0.34,-1.31 -0.34,-1.42 0,-0.77 0.62,-1.11 1.19,-1.11 0.51,0 1.21,0.31 1.48,1 0.08,0.22 0.45,1.75 0.67,2.62 z" /></g>  <g
     style="font-style:normal;font-variant:normal;font-weight:normal;font-stretch:normal;letter-spacing:normal;word-spacing:normal;text-anchor:start;fill:none;stroke:#000000;stroke-linecap:butt;stroke-linejoin:miter;stroke-miterlimit:10.43299961;stroke-dasharray:none;stroke-dashoffset:0;stroke-opacity:1"
     id="g7170"
     transform="matrix(0.17563204,0,0,-0.17563204,263.2713,222.93186)"
     xml:space="preserve"
     stroke-miterlimit="10.433"
     font-style="normal"
     font-variant="normal"
     font-weight="normal"
     font-stretch="normal"
     font-size-adjust="none"
     letter-spacing="normal"
     word-spacing="normal"><path
       style="fill:#000000;stroke-width:0"
       inkscape:connector-curvature="0"
       d="m 459.91,409.14 -0.02,-0.07 -0.01,-0.08 -0.02,-0.07 -0.01,-0.08 -0.04,-0.16 -0.04,-0.16 -0.03,-0.16 -0.04,-0.16 -0.04,-0.16 -0.04,-0.16 -0.01,-0.08 -0.02,-0.07 -0.02,-0.07 -0.01,-0.07 -0.02,-0.07 -0.01,-0.07 -0.01,-0.06 -0.01,-0.06 -0.01,-0.06 -0.01,-0.05 -0.01,-0.05 -0.01,-0.04 -0.01,-0.04 0,-0.04 0,-0.03 0,-0.02 c 0,-0.89 0.7,-1.35 1.43,-1.35 0.61,0 1.5,0.39 1.85,1.39 0.06,0.11 0.65,2.44 0.95,3.69 l 1.1,4.48 c 0.29,1.1 0.59,2.19 0.84,3.35 0.2,0.84 0.61,2.28 0.66,2.48 0.75,1.55 3.39,6.08 8.1,6.08 2.25,0 2.71,-1.84 2.71,-3.48 0,-3.1 -2.46,-9.47 -3.25,-11.61 -0.44,-1.14 -0.49,-1.75 -0.49,-2.3 0,-2.33 1.74,-4.08 4.08,-4.08 4.69,0 6.53,7.27 6.53,7.67 0,0.5 -0.45,0.5 -0.61,0.5 -0.48,0 -0.48,-0.15 -0.73,-0.9 -1,-3.38 -2.64,-6.17 -5.09,-6.17 -0.85,0 -1.19,0.5 -1.19,1.64 0,1.25 0.45,2.45 0.89,3.54 0.95,2.64 3.05,8.11 3.05,10.96 0,3.34 -2.15,5.32 -5.74,5.32 -4.48,0 -6.92,-3.18 -7.76,-4.32 -0.25,2.79 -2.3,4.32 -4.6,4.32 -2.28,0 -3.23,-1.93 -3.73,-2.82 -0.8,-1.71 -1.5,-4.64 -1.5,-4.85 0,-0.5 0.5,-0.5 0.61,-0.5 0.5,0 0.54,0.07 0.84,1.16 0.84,3.53 1.84,5.92 3.64,5.92 0.99,0 1.55,-0.64 1.55,-2.28 0,-1.05 -0.16,-1.61 -0.8,-4.19 z"
       id="path7172" /><path
       style="fill:#000000;stroke-width:0"
       inkscape:connector-curvature="0"
       d="m 493.59,405.79 0,0.02 0,0.01 0.01,0.02 0,0.03 0.01,0.03 0,0.03 0.01,0.03 0.01,0.04 0.01,0.04 0.01,0.05 0.01,0.04 0.02,0.06 0.01,0.05 0.01,0.05 0.03,0.12 0.03,0.13 0.04,0.13 0.03,0.15 0.04,0.14 0.04,0.15 0.04,0.15 0.08,0.32 0.08,0.31 0.04,0.15 0.04,0.15 0.03,0.14 0.04,0.14 0.04,0.14 0.03,0.12 0.03,0.12 0.01,0.05 0.02,0.05 0.01,0.05 0.01,0.05 0.02,0.04 0.01,0.04 0.01,0.04 0.01,0.03 0,0.03 0.01,0.03 0.01,0.02 0,0.02 0.01,0.01 0,0.01 c 0.08,0.29 1.08,2.02 2.21,2.86 0.37,0.27 1.31,0.97 2.81,0.97 0.34,0 1.22,-0.03 1.92,-0.48 -1.13,-0.31 -1.53,-1.3 -1.53,-1.92 0,-0.77 0.59,-1.29 1.39,-1.29 0.8,0 1.95,0.66 1.95,2.13 0,1.81 -1.92,2.53 -3.7,2.53 -1.81,0 -3.38,-0.72 -4.91,-2.47 -0.62,2.13 -2.75,2.47 -3.59,2.47 -1.28,0 -2.16,-0.8 -2.72,-1.76 -0.8,-1.36 -1.28,-3.4 -1.28,-3.57 0,-0.45 0.48,-0.45 0.59,-0.45 0.49,0 0.52,0.11 0.77,1.05 0.51,2.12 1.19,3.76 2.55,3.76 0.9,0 1.14,-0.76 1.14,-1.7 0,-0.67 -0.32,-1.95 -0.57,-2.89 -0.23,-0.95 -0.57,-2.38 -0.76,-3.14 l -1.11,-4.47 c -0.14,-0.44 -0.35,-1.31 -0.35,-1.42 0,-0.77 0.63,-1.11 1.19,-1.11 0.52,0 1.22,0.31 1.49,1 0.07,0.22 0.45,1.75 0.67,2.62 z"
       id="path7174" /><path
       style="fill:#000000;stroke-width:0"
       inkscape:connector-curvature="0"
       d="m 517.59,406.25 0,0.3 -0.01,0.3 -0.02,0.29 -0.03,0.28 -0.03,0.27 -0.04,0.26 -0.04,0.26 -0.05,0.24 -0.06,0.24 -0.07,0.23 -0.07,0.22 -0.07,0.21 -0.09,0.2 -0.09,0.19 -0.09,0.19 -0.1,0.17 -0.11,0.16 -0.11,0.16 -0.12,0.14 -0.12,0.13 -0.13,0.13 -0.13,0.11 -0.14,0.1 -0.15,0.1 -0.14,0.08 -0.16,0.07 -0.16,0.06 -0.16,0.05 -0.17,0.04 -0.17,0.03 -0.18,0.01 -0.18,0.01 c -1.64,0 -2.64,-1.25 -2.64,-2.64 0,-1.34 1,-2.64 2.64,-2.64 0.6,0 1.25,0.2 1.75,0.64 0.14,0.11 0.2,0.16 0.25,0.16 0.05,0 0.1,-0.05 0.1,-0.75 0,-3.69 -1.74,-6.68 -3.4,-8.32 -0.54,-0.54 -0.54,-0.65 -0.54,-0.79 0,-0.36 0.25,-0.55 0.5,-0.55 0.54,0 4.53,3.83 4.53,9.66 z"
       id="path7176" /><path
       style="fill:#000000;stroke-width:0"
       inkscape:connector-curvature="0"
       d="m 533.95,409.14 -0.02,-0.07 -0.01,-0.08 -0.02,-0.07 -0.02,-0.08 -0.03,-0.16 -0.04,-0.16 -0.04,-0.16 -0.03,-0.16 -0.04,-0.16 -0.04,-0.16 -0.01,-0.08 -0.02,-0.07 -0.02,-0.07 -0.01,-0.07 -0.02,-0.07 -0.01,-0.07 -0.01,-0.06 -0.02,-0.06 -0.01,-0.06 -0.01,-0.05 0,-0.05 -0.01,-0.04 -0.01,-0.04 0,-0.04 0,-0.03 0,-0.02 c 0,-0.89 0.7,-1.35 1.43,-1.35 0.61,0 1.5,0.39 1.85,1.39 0.06,0.11 0.65,2.44 0.95,3.69 l 1.09,4.48 c 0.3,1.1 0.6,2.19 0.85,3.35 0.2,0.84 0.61,2.28 0.65,2.48 0.75,1.55 3.4,6.08 8.11,6.08 2.25,0 2.71,-1.84 2.71,-3.48 0,-3.1 -2.46,-9.47 -3.25,-11.61 -0.44,-1.14 -0.49,-1.75 -0.49,-2.3 0,-2.33 1.74,-4.08 4.08,-4.08 4.69,0 6.53,7.27 6.53,7.67 0,0.5 -0.45,0.5 -0.61,0.5 -0.48,0 -0.48,-0.15 -0.73,-0.9 -1,-3.38 -2.64,-6.17 -5.1,-6.17 -0.84,0 -1.18,0.5 -1.18,1.64 0,1.25 0.45,2.45 0.89,3.54 0.95,2.64 3.04,8.11 3.04,10.96 0,3.34 -2.14,5.32 -5.73,5.32 -4.49,0 -6.92,-3.18 -7.77,-4.32 -0.25,2.79 -2.29,4.32 -4.59,4.32 -2.28,0 -3.23,-1.93 -3.73,-2.82 -0.8,-1.71 -1.5,-4.64 -1.5,-4.85 0,-0.5 0.5,-0.5 0.6,-0.5 0.5,0 0.55,0.07 0.85,1.16 0.84,3.53 1.84,5.92 3.64,5.92 0.98,0 1.55,-0.64 1.55,-2.28 0,-1.05 -0.16,-1.61 -0.8,-4.19 z"
       id="path7178" /><path
       style="fill:#000000;stroke-width:0"
       inkscape:connector-curvature="0"
       d="m 569.27,421.9 0,0.01 0,0 0,0 0.01,0.01 0,0 0,0.01 0,0.01 0,0 0.01,0.01 0,0.01 0,0.01 0.01,0.02 0,0.02 0.01,0.02 0.01,0.02 0,0.02 0.01,0.02 0,0.03 0.01,0.02 0.01,0.05 0.01,0.04 0.01,0.03 0,0.02 0.01,0.02 0,0.02 0.01,0.02 0,0.02 0.01,0.02 0,0.01 0,0.01 0,0.01 0,0 0.01,0.01 0,0 0,0.01 0,0 0,0.01 0,0 0,0 0,0.01 0,0 c 0,0.19 -0.14,0.5 -0.56,0.5 -0.69,0 -3.6,-0.28 -4.45,-0.36 -0.25,-0.03 -0.74,-0.06 -0.74,-0.8 0,-0.48 0.49,-0.48 0.87,-0.48 1.68,0 1.68,-0.25 1.68,-0.53 0,-0.24 -0.08,-0.46 -0.14,-0.77 l -4.33,-17.2 c -0.11,-0.36 -0.14,-0.74 -0.14,-1.08 0,-2.23 1.98,-3.31 3.65,-3.31 0.85,0 1.9,0.28 2.8,1.84 0.73,1.28 1.22,3.35 1.22,3.49 0,0.45 -0.45,0.45 -0.56,0.45 -0.49,0 -0.55,-0.2 -0.69,-0.84 -0.45,-1.74 -1.12,-3.97 -2.62,-3.97 -0.94,0 -1.18,0.87 -1.18,1.7 0,0.39 0.1,1.05 0.21,1.44 z"
       id="path7180" /></g>  <g
     style="font-style:normal;font-variant:normal;font-weight:normal;font-stretch:normal;letter-spacing:normal;word-spacing:normal;text-anchor:start;fill:none;stroke:#000000;stroke-linecap:butt;stroke-linejoin:miter;stroke-miterlimit:10.43299961;stroke-dasharray:none;stroke-dashoffset:0;stroke-opacity:1"
     id="g7548"
     transform="matrix(0.17563204,0,0,-0.17563204,265.42532,143.91036)"
     xml:space="preserve"
     stroke-miterlimit="10.433"
     font-style="normal"
     font-variant="normal"
     font-weight="normal"
     font-stretch="normal"
     font-size-adjust="none"
     letter-spacing="normal"
     word-spacing="normal"><path
       style="fill:#000000;stroke-width:0"
       inkscape:connector-curvature="0"
       d="m 465.35,447.34 0,0 0,0.01 0,0 0,0.01 0.01,0 0,0.01 0,0 0,0.01 0.01,0.01 0,0 0,0.02 0.01,0.02 0,0.02 0.01,0.02 0,0.02 0.01,0.02 0.01,0.02 0,0.02 0.01,0.03 0.01,0.04 0.01,0.05 0.01,0.02 0,0.03 0.01,0.02 0,0.02 0.01,0.02 0,0.02 0,0.01 0.01,0.02 0,0.01 0,0 0,0.01 0,0.01 0,0 0.01,0.01 0,0 0,0.01 0,0 0,0 0,0.01 0,0 c 0,0.18 -0.14,0.5 -0.56,0.5 -0.69,0 -3.6,-0.28 -4.46,-0.36 -0.25,-0.03 -0.73,-0.07 -0.73,-0.8 0,-0.48 0.48,-0.48 0.87,-0.48 1.68,0 1.68,-0.25 1.68,-0.54 0,-0.23 -0.08,-0.45 -0.15,-0.76 l -4.32,-17.2 c -0.11,-0.36 -0.14,-0.74 -0.14,-1.08 0,-2.24 1.98,-3.31 3.65,-3.31 0.85,0 1.89,0.28 2.8,1.84 0.73,1.28 1.22,3.34 1.22,3.48 0,0.46 -0.46,0.46 -0.56,0.46 -0.49,0 -0.55,-0.21 -0.69,-0.85 -0.46,-1.73 -1.13,-3.97 -2.63,-3.97 -0.93,0 -1.17,0.88 -1.17,1.71 0,0.39 0.09,1.04 0.2,1.43 z"
       id="path7550" /><path
       style="fill:#000000;stroke-width:0"
       inkscape:connector-curvature="0"
       d="m 487.52,421.25 0.03,0.13 0.04,0.15 0.04,0.16 0.04,0.18 0.06,0.19 0.06,0.21 0.06,0.22 0.07,0.22 0.08,0.23 0.09,0.24 0.1,0.25 0.1,0.24 0.11,0.25 0.12,0.25 0.13,0.25 0.14,0.25 0.14,0.24 0.16,0.24 0.17,0.23 0.17,0.22 0.19,0.22 0.2,0.2 0.21,0.19 0.22,0.18 0.23,0.16 0.25,0.14 0.12,0.07 0.13,0.06 0.14,0.05 0.13,0.05 0.14,0.05 0.14,0.04 0.15,0.03 0.15,0.03 0.15,0.02 0.16,0.02 0.15,0.01 0.17,0 c 0.25,0 1.43,0 2.48,-0.64 -1.39,-0.25 -2.39,-1.5 -2.39,-2.69 0,-0.79 0.55,-1.75 1.89,-1.75 1.1,0 2.69,0.89 2.69,2.89 0,2.6 -2.94,3.28 -4.63,3.28 -2.89,0 -4.64,-2.64 -5.23,-3.78 -1.25,3.28 -3.94,3.78 -5.38,3.78 -5.18,0 -8.03,-6.42 -8.03,-7.67 0,-0.5 0.5,-0.5 0.61,-0.5 0.39,0 0.55,0.11 0.64,0.55 1.69,5.28 4.99,6.53 6.68,6.53 0.95,0 2.68,-0.44 2.68,-3.33 0,-1.54 -0.84,-4.89 -2.68,-11.86 -0.8,-3.09 -2.54,-5.18 -4.74,-5.18 -0.3,0 -1.44,0 -2.48,0.65 1.25,0.24 2.34,1.28 2.34,2.69 0,1.34 -1.09,1.73 -1.84,1.73 -1.5,0 -2.75,-1.29 -2.75,-2.89 0,-2.28 2.5,-3.28 4.68,-3.28 3.3,0 5.08,3.49 5.24,3.78 0.59,-1.84 2.39,-3.78 5.37,-3.78 5.14,0 7.99,6.42 7.99,7.67 0,0.5 -0.46,0.5 -0.61,0.5 -0.44,0 -0.55,-0.2 -0.64,-0.54 -1.64,-5.33 -5.03,-6.53 -6.63,-6.53 -1.95,0 -2.75,1.59 -2.75,3.29 0,1.1 0.3,2.19 0.86,4.38 z"
       id="path7552" /><path
       style="fill:#000000;stroke-width:0"
       inkscape:connector-curvature="0"
       d="m 509.43,406.25 -0.01,0.3 -0.01,0.3 -0.02,0.29 -0.02,0.28 -0.03,0.27 -0.04,0.26 -0.05,0.26 -0.05,0.24 -0.06,0.24 -0.06,0.23 -0.07,0.22 -0.08,0.21 -0.08,0.2 -0.09,0.19 -0.09,0.19 -0.11,0.17 -0.1,0.16 -0.11,0.16 -0.12,0.14 -0.13,0.13 -0.12,0.13 -0.14,0.11 -0.14,0.1 -0.14,0.1 -0.15,0.08 -0.15,0.07 -0.16,0.06 -0.16,0.05 -0.17,0.04 -0.17,0.03 -0.18,0.01 -0.18,0.01 c -1.64,0 -2.64,-1.25 -2.64,-2.64 0,-1.34 1,-2.64 2.64,-2.64 0.59,0 1.25,0.2 1.75,0.64 0.14,0.11 0.2,0.16 0.25,0.16 0.05,0 0.09,-0.05 0.09,-0.75 0,-3.69 -1.73,-6.68 -3.39,-8.32 -0.55,-0.54 -0.55,-0.65 -0.55,-0.79 0,-0.36 0.25,-0.55 0.5,-0.55 0.55,0 4.54,3.83 4.54,9.66 z"
       id="path7554" /><path
       style="fill:#000000;stroke-width:0"
       inkscape:connector-curvature="0"
       d="m 522.95,447.34 0,0 0,0.01 0,0 0.01,0.01 0,0 0,0.01 0,0 0,0.01 0.01,0.01 0,0 0,0.02 0.01,0.02 0,0.02 0.01,0.02 0.01,0.02 0,0.02 0.01,0.02 0,0.02 0.01,0.03 0.01,0.04 0.01,0.05 0.01,0.02 0,0.03 0.01,0.02 0,0.02 0.01,0.02 0,0.02 0.01,0.01 0,0.02 0,0.01 0,0 0,0.01 0.01,0.01 0,0 0,0.01 0,0 0,0.01 0,0 0,0 0,0.01 0,0 c 0,0.18 -0.14,0.5 -0.56,0.5 -0.69,0 -3.6,-0.28 -4.46,-0.36 -0.25,-0.03 -0.73,-0.07 -0.73,-0.8 0,-0.48 0.48,-0.48 0.88,-0.48 1.67,0 1.67,-0.25 1.67,-0.54 0,-0.23 -0.08,-0.45 -0.14,-0.76 l -4.33,-17.2 c -0.11,-0.36 -0.14,-0.74 -0.14,-1.08 0,-2.24 1.98,-3.31 3.65,-3.31 0.85,0 1.89,0.28 2.8,1.84 0.74,1.28 1.22,3.34 1.22,3.48 0,0.46 -0.45,0.46 -0.56,0.46 -0.49,0 -0.55,-0.21 -0.69,-0.85 -0.45,-1.73 -1.13,-3.97 -2.63,-3.97 -0.93,0 -1.17,0.88 -1.17,1.71 0,0.39 0.1,1.04 0.2,1.43 z"
       id="path7556" /><path
       style="fill:#000000;stroke-width:0"
       inkscape:connector-curvature="0"
       d="m 560.98,425.18 0.01,0.04 0.01,0.03 0.01,0.06 0.02,0.05 0.01,0.06 0.02,0.05 0.01,0.04 0.01,0.05 0.01,0.04 0.01,0.04 0.01,0.04 0,0.04 0.01,0.04 0.01,0.03 0,0.03 0.01,0.03 0,0.03 0.01,0.03 0,0.03 0.01,0.05 0,0.06 0.01,0.05 0,0.05 0,0.05 0,0.03 0,0.03 0,0.03 0,0.03 c 0,0.91 -0.69,1.35 -1.44,1.35 -0.5,0 -1.3,-0.3 -1.75,-1.05 -0.09,-0.25 -0.5,-1.78 -0.69,-2.69 -0.36,-1.29 -0.7,-2.64 -1,-3.98 l -2.25,-8.97 c -0.19,-0.75 -2.32,-4.23 -5.62,-4.23 -2.53,0 -3.1,2.18 -3.1,4.03 0,2.29 0.86,5.39 2.55,9.76 0.8,2.05 1,2.6 1,3.6 0,2.23 -1.59,4.07 -4.09,4.07 -4.74,0 -6.58,-7.21 -6.58,-7.67 0,-0.5 0.5,-0.5 0.61,-0.5 0.5,0 0.54,0.11 0.79,0.91 1.35,4.69 3.33,6.17 5.04,6.17 0.39,0 1.25,0 1.25,-1.59 0,-1.25 -0.5,-2.53 -0.86,-3.49 -1.99,-5.28 -2.89,-8.12 -2.89,-10.47 0,-4.42 3.14,-5.92 6.08,-5.92 1.95,0 3.63,0.85 5.03,2.24 -0.65,-2.58 -1.24,-5.03 -3.24,-7.68 -1.29,-1.68 -3.19,-3.14 -5.48,-3.14 -0.69,0 -2.94,0.16 -3.78,2.1 0.79,0 1.45,0 2.14,0.61 0.5,0.43 1,1.09 1,2.03 0,1.55 -1.35,1.75 -1.85,1.75 -1.14,0 -2.79,-0.8 -2.79,-3.24 0,-2.5 2.2,-4.34 5.28,-4.34 5.14,0 10.26,4.55 11.67,10.17 z"
       id="path7558" /></g></svg>
