<?xml version="1.0" encoding="UTF-8" standalone="no"?>
<!-- Created with Inkscape (http://www.inkscape.org/) -->

<svg
   xmlns:dc="http://purl.org/dc/elements/1.1/"
   xmlns:cc="http://creativecommons.org/ns#"
   xmlns:rdf="http://www.w3.org/1999/02/22-rdf-syntax-ns#"
   xmlns:svg="http://www.w3.org/2000/svg"
   xmlns="http://www.w3.org/2000/svg"
   xmlns:sodipodi="http://sodipodi.sourceforge.net/DTD/sodipodi-0.dtd"
   xmlns:inkscape="http://www.inkscape.org/namespaces/inkscape"
   version="1.1"
   width="1083"
   height="736"
   id="svg2"
   inkscape:version="0.48.5 r10040"
   sodipodi:docname="use-case-polygon.svg">
  <sodipodi:namedview
     pagecolor="#ffffff"
     bordercolor="#666666"
     borderopacity="1"
     objecttolerance="10"
     gridtolerance="10"
     guidetolerance="10"
     inkscape:pageopacity="0"
     inkscape:pageshadow="2"
     inkscape:window-width="1276"
     inkscape:window-height="761"
     id="namedview6"
     showgrid="false"
     inkscape:zoom="0.64130435"
     inkscape:cx="568.50637"
     inkscape:cy="320.92917"
     inkscape:window-x="1280"
     inkscape:window-y="394"
     inkscape:window-maximized="0"
     inkscape:current-layer="svg2" />
  <metadata
     id="metadata8">
    <rdf:RDF>
      <cc:Work
         rdf:about="">
        <dc:format>image/svg+xml</dc:format>
        <dc:type
           rdf:resource="http://purl.org/dc/dcmitype/StillImage" />
        <dc:title />
      </cc:Work>
    </rdf:RDF>
  </metadata>
  <defs
     id="defs6" />
  <path
     d="m 10,609.69492 34.30509,45.22033 103.30508,-84.59322 14.81356,67.44068 24.55932,-12.86441 -12.86441,-61.98305 89.66102,-95.11864 92,-125.52542 11.30509,7.40678 7.01695,-15.59322 -3.89831,-1.55933 44.83051,-121.62712 14.42373,5.45763 33.91525,-98.62712 16.37288,0 L 494.94915,77.18644 416.20339,49.118643 324.59322,300.16949 136.30509,511.0678 z"
     id="path2987"
     style="fill:none;stroke:#000000;stroke-width:1px;stroke-linecap:butt;stroke-linejoin:miter;stroke-opacity:1"
     inkscape:connector-curvature="0" />
  <path
     style="fill:none;stroke:#000000;stroke-width:1px;stroke-linecap:butt;stroke-linejoin:miter;stroke-opacity:1"
     id="path2983"
     d="m 270,609.69492 34.30509,45.22033 103.30508,-84.59322 14.81356,67.44068 24.55932,-12.86441 -12.86441,-61.98305 89.66102,-95.11864 92,-125.52542 11.30509,7.40678 7.01695,-15.59322 -3.89831,-1.55933 44.83051,-121.62712 14.42373,5.45763 33.91525,-98.62712 16.37288,0 L 754.94915,77.18644 676.20339,49.118643 584.59322,300.16949 396.30509,511.0678 z"
     inkscape:connector-curvature="0" />
  <path
     inkscape:connector-curvature="0"
     style="fill:none;stroke:#000000;stroke-width:1px;stroke-linecap:butt;stroke-linejoin:miter;stroke-opacity:1"
     id="path2985"
     d="m 530,609.69492 34.30509,45.22033 103.30508,-84.59322 14.81356,67.44068 24.55932,-12.86441 -12.86441,-61.98305 89.66102,-95.11864 92,-125.52542 11.30509,7.40678 7.01695,-15.59322 -3.89831,-1.55933 44.83051,-121.62712 14.4237,5.45763 33.9153,-98.62712 16.3729,0 15.2034,-40.54237 L 936.20339,49.118643 844.59322,300.16949 656.30509,511.0678 z" />
</svg>
